G04 #@! TF.GenerationSoftware,KiCad,Pcbnew,7.0.5*
G04 #@! TF.CreationDate,2024-04-09T17:23:45-07:00*
G04 #@! TF.ProjectId,ClinicV12,436c696e-6963-4563-9132-2e6b69636164,rev?*
G04 #@! TF.SameCoordinates,Original*
G04 #@! TF.FileFunction,Legend,Bot*
G04 #@! TF.FilePolarity,Positive*
%FSLAX46Y46*%
G04 Gerber Fmt 4.6, Leading zero omitted, Abs format (unit mm)*
G04 Created by KiCad (PCBNEW 7.0.5) date 2024-04-09 17:23:45*
%MOMM*%
%LPD*%
G01*
G04 APERTURE LIST*
G04 Aperture macros list*
%AMRoundRect*
0 Rectangle with rounded corners*
0 $1 Rounding radius*
0 $2 $3 $4 $5 $6 $7 $8 $9 X,Y pos of 4 corners*
0 Add a 4 corners polygon primitive as box body*
4,1,4,$2,$3,$4,$5,$6,$7,$8,$9,$2,$3,0*
0 Add four circle primitives for the rounded corners*
1,1,$1+$1,$2,$3*
1,1,$1+$1,$4,$5*
1,1,$1+$1,$6,$7*
1,1,$1+$1,$8,$9*
0 Add four rect primitives between the rounded corners*
20,1,$1+$1,$2,$3,$4,$5,0*
20,1,$1+$1,$4,$5,$6,$7,0*
20,1,$1+$1,$6,$7,$8,$9,0*
20,1,$1+$1,$8,$9,$2,$3,0*%
G04 Aperture macros list end*
%ADD10RoundRect,0.102000X0.754000X0.754000X-0.754000X0.754000X-0.754000X-0.754000X0.754000X-0.754000X0*%
%ADD11C,1.712000*%
%ADD12RoundRect,0.102000X0.930000X-0.930000X0.930000X0.930000X-0.930000X0.930000X-0.930000X-0.930000X0*%
%ADD13C,2.064000*%
%ADD14C,1.625600*%
%ADD15C,1.701600*%
%ADD16O,1.701600X1.701600*%
%ADD17O,3.048800X1.626400*%
%ADD18C,1.728000*%
%ADD19RoundRect,0.102000X-0.762000X-0.762000X0.762000X-0.762000X0.762000X0.762000X-0.762000X0.762000X0*%
G04 APERTURE END LIST*
%LPC*%
D10*
X193562000Y-141464000D03*
D11*
X193562000Y-138924000D03*
X193562000Y-136384000D03*
X193562000Y-133844000D03*
X193562000Y-131304000D03*
X193562000Y-128764000D03*
X193562000Y-126224000D03*
X193562000Y-123684000D03*
X180862000Y-141464000D03*
X180862000Y-138924000D03*
X180862000Y-136384000D03*
X180862000Y-133844000D03*
X180862000Y-131304000D03*
X180862000Y-128764000D03*
X180862000Y-126224000D03*
X180862000Y-123684000D03*
X185942000Y-123684000D03*
X183402000Y-123684000D03*
D12*
X138952000Y-97014000D03*
D13*
X138952000Y-94474000D03*
X138952000Y-91934000D03*
D14*
X121172000Y-127494000D03*
X121172000Y-130034000D03*
X121172000Y-132574000D03*
X121172000Y-135114000D03*
X121172000Y-137654000D03*
D15*
X138952000Y-74154000D03*
X138952000Y-71654000D03*
D14*
X202452000Y-86854000D03*
X202452000Y-89394000D03*
X202452000Y-91934000D03*
X202452000Y-94474000D03*
X202452000Y-97014000D03*
X202452000Y-99554000D03*
D15*
X169432000Y-89394000D03*
D16*
X169432000Y-79234000D03*
D14*
X189752000Y-79234000D03*
X192292000Y-79234000D03*
X194832000Y-79234000D03*
X197372000Y-79234000D03*
X199912000Y-79234000D03*
X202452000Y-79234000D03*
D12*
X138952000Y-112254000D03*
D13*
X138952000Y-109714000D03*
X138952000Y-107174000D03*
D12*
X128792000Y-112254000D03*
D13*
X128792000Y-109714000D03*
X128792000Y-107174000D03*
D14*
X201182000Y-117334000D03*
X201182000Y-119874000D03*
X201182000Y-122414000D03*
X201182000Y-124954000D03*
D17*
X147842000Y-98284000D03*
X147842000Y-100824000D03*
X147842000Y-131304000D03*
X173242000Y-98284000D03*
X173242000Y-113524000D03*
X173242000Y-131304000D03*
X173242000Y-133844000D03*
X173242000Y-128764000D03*
X173242000Y-121144000D03*
X173242000Y-144004000D03*
X173242000Y-141464000D03*
X173242000Y-138924000D03*
X147842000Y-136384000D03*
X147842000Y-138924000D03*
X147842000Y-141464000D03*
X147842000Y-128764000D03*
X147842000Y-133844000D03*
X147842000Y-126224000D03*
X173242000Y-136384000D03*
X173242000Y-126224000D03*
X173242000Y-123684000D03*
X173242000Y-118604000D03*
X173242000Y-116064000D03*
X173242000Y-110984000D03*
X173242000Y-103364000D03*
X173242000Y-100824000D03*
X147842000Y-118604000D03*
X147842000Y-121144000D03*
X147842000Y-123684000D03*
X147842000Y-113524000D03*
X147842000Y-116064000D03*
X147842000Y-108444000D03*
X147842000Y-110984000D03*
X147842000Y-103364000D03*
X147842000Y-105904000D03*
X173242000Y-108444000D03*
X173242000Y-105904000D03*
X147842000Y-144004000D03*
D15*
X128792000Y-94474000D03*
D16*
X118632000Y-94474000D03*
D10*
X193562000Y-118604000D03*
D11*
X193562000Y-116064000D03*
X193562000Y-113524000D03*
X193562000Y-110984000D03*
X193562000Y-108444000D03*
X193562000Y-105904000D03*
X193562000Y-103364000D03*
X193562000Y-100824000D03*
X180862000Y-118604000D03*
X180862000Y-116064000D03*
X180862000Y-113524000D03*
X180862000Y-110984000D03*
X180862000Y-108444000D03*
X180862000Y-105904000D03*
X180862000Y-103364000D03*
X180862000Y-100824000D03*
X185942000Y-100824000D03*
X183402000Y-100824000D03*
D14*
X123712000Y-81774000D03*
X123712000Y-79234000D03*
X123712000Y-76694000D03*
X123712000Y-74154000D03*
X123712000Y-71614000D03*
X123712000Y-69074000D03*
D15*
X173482000Y-89394000D03*
D16*
X173482000Y-79234000D03*
D15*
X177532000Y-89394000D03*
D16*
X177532000Y-79234000D03*
D15*
X136412000Y-84274000D03*
X136412000Y-81774000D03*
X128792000Y-99808000D03*
D16*
X118632000Y-99808000D03*
D14*
X131332000Y-76694000D03*
X131332000Y-71614000D03*
X118632000Y-112254000D03*
X118632000Y-107174000D03*
D15*
X181582000Y-89394000D03*
D16*
X181582000Y-79234000D03*
D18*
X158002000Y-85584000D03*
X147842000Y-85584000D03*
X158002000Y-83044000D03*
D19*
X158002000Y-77964000D03*
D18*
X158002000Y-80504000D03*
X158002000Y-88124000D03*
X158002000Y-90664000D03*
X147842000Y-83044000D03*
D19*
X147842000Y-77964000D03*
D18*
X147842000Y-80504000D03*
X147842000Y-88124000D03*
X147842000Y-90664000D03*
D14*
X201182000Y-132574000D03*
X201182000Y-135114000D03*
X201182000Y-137654000D03*
X201182000Y-140194000D03*
%LPD*%
M02*
