M48
; DRILL file {KiCad 7.0.5} date Tue Apr  9 17:23:53 2024
; FORMAT={-:-/ absolute / metric / decimal}
; #@! TF.CreationDate,2024-04-09T17:23:53-07:00
; #@! TF.GenerationSoftware,Kicad,Pcbnew,7.0.5
; #@! TF.FileFunction,Plated,1,2,PTH
FMAT,2
METRIC
; #@! TA.AperFunction,Plated,PTH,ViaDrill
T1C0.400
; #@! TA.AperFunction,Plated,PTH,ComponentDrill
T2C0.762
; #@! TA.AperFunction,Plated,PTH,ComponentDrill
T3C0.800
; #@! TA.AperFunction,Plated,PTH,ComponentDrill
T4C0.900
; #@! TA.AperFunction,Plated,PTH,ComponentDrill
T5C1.000
; #@! TA.AperFunction,Plated,PTH,ComponentDrill
T6C1.016
; #@! TA.AperFunction,Plated,PTH,ComponentDrill
T7C1.240
%
G90
G05
T1
X136.412Y-124.954
X136.412Y-130.034
X141.492Y-117.334
X141.492Y-119.874
X144.032Y-79.234
X144.032Y-91.934
X144.032Y-97.014
X154.686Y-84.328
X164.338Y-86.614
X166.37Y-83.312
X177.052Y-98.298
X189.484Y-85.09
T2
X118.632Y-107.174
X118.632Y-112.254
X121.172Y-127.494
X121.172Y-130.034
X121.172Y-132.574
X121.172Y-135.114
X121.172Y-137.654
X123.712Y-69.074
X123.712Y-71.614
X123.712Y-74.154
X123.712Y-76.694
X123.712Y-79.234
X123.712Y-81.774
X131.332Y-71.614
X131.332Y-76.694
X189.752Y-79.234
X192.292Y-79.234
X194.832Y-79.234
X197.372Y-79.234
X199.912Y-79.234
X201.182Y-117.334
X201.182Y-119.874
X201.182Y-122.414
X201.182Y-124.954
X201.182Y-132.574
X201.182Y-135.114
X201.182Y-137.654
X201.182Y-140.194
X202.452Y-79.234
X202.452Y-86.854
X202.452Y-89.394
X202.452Y-91.934
X202.452Y-94.474
X202.452Y-97.014
X202.452Y-99.554
T3
X118.632Y-94.474
X118.632Y-99.808
X128.792Y-94.474
X128.792Y-99.808
X136.412Y-81.774
X136.412Y-84.274
X138.952Y-71.654
X138.952Y-74.154
X169.432Y-79.234
X169.432Y-89.394
X173.482Y-79.234
X173.482Y-89.394
X177.532Y-79.234
X177.532Y-89.394
X181.582Y-79.234
X181.582Y-89.394
T4
X147.842Y-98.284
X147.842Y-100.824
X147.842Y-103.364
X147.842Y-105.904
X147.842Y-108.444
X147.842Y-110.984
X147.842Y-113.524
X147.842Y-116.064
X147.842Y-118.604
X147.842Y-121.144
X147.842Y-123.684
X147.842Y-126.224
X147.842Y-128.764
X147.842Y-131.304
X147.842Y-133.844
X147.842Y-136.384
X147.842Y-138.924
X147.842Y-141.464
X147.842Y-144.004
X173.242Y-98.284
X173.242Y-100.824
X173.242Y-103.364
X173.242Y-105.904
X173.242Y-108.444
X173.242Y-110.984
X173.242Y-113.524
X173.242Y-116.064
X173.242Y-118.604
X173.242Y-121.144
X173.242Y-123.684
X173.242Y-126.224
X173.242Y-128.764
X173.242Y-131.304
X173.242Y-133.844
X173.242Y-136.384
X173.242Y-138.924
X173.242Y-141.464
X173.242Y-144.004
T5
X180.862Y-100.824
X180.862Y-103.364
X180.862Y-105.904
X180.862Y-108.444
X180.862Y-110.984
X180.862Y-113.524
X180.862Y-116.064
X180.862Y-118.604
X180.862Y-123.684
X180.862Y-126.224
X180.862Y-128.764
X180.862Y-131.304
X180.862Y-133.844
X180.862Y-136.384
X180.862Y-138.924
X180.862Y-141.464
X183.402Y-100.824
X183.402Y-123.684
X185.942Y-100.824
X185.942Y-123.684
X193.562Y-100.824
X193.562Y-103.364
X193.562Y-105.904
X193.562Y-108.444
X193.562Y-110.984
X193.562Y-113.524
X193.562Y-116.064
X193.562Y-118.604
X193.562Y-123.684
X193.562Y-126.224
X193.562Y-128.764
X193.562Y-131.304
X193.562Y-133.844
X193.562Y-136.384
X193.562Y-138.924
X193.562Y-141.464
T6
X147.842Y-77.964
X147.842Y-80.504
X147.842Y-83.044
X147.842Y-85.584
X147.842Y-88.124
X147.842Y-90.664
X158.002Y-77.964
X158.002Y-80.504
X158.002Y-83.044
X158.002Y-85.584
X158.002Y-88.124
X158.002Y-90.664
T7
X128.792Y-107.174
X128.792Y-109.714
X128.792Y-112.254
X138.952Y-91.934
X138.952Y-94.474
X138.952Y-97.014
X138.952Y-107.174
X138.952Y-109.714
X138.952Y-112.254
T0
M30
