G04 #@! TF.GenerationSoftware,KiCad,Pcbnew,7.0.5*
G04 #@! TF.CreationDate,2024-04-09T17:23:45-07:00*
G04 #@! TF.ProjectId,ClinicV12,436c696e-6963-4563-9132-2e6b69636164,rev?*
G04 #@! TF.SameCoordinates,Original*
G04 #@! TF.FileFunction,Copper,L2,Bot*
G04 #@! TF.FilePolarity,Positive*
%FSLAX46Y46*%
G04 Gerber Fmt 4.6, Leading zero omitted, Abs format (unit mm)*
G04 Created by KiCad (PCBNEW 7.0.5) date 2024-04-09 17:23:45*
%MOMM*%
%LPD*%
G01*
G04 APERTURE LIST*
G04 #@! TA.AperFunction,ComponentPad*
%ADD10R,1.508000X1.508000*%
G04 #@! TD*
G04 #@! TA.AperFunction,ComponentPad*
%ADD11C,1.508000*%
G04 #@! TD*
G04 #@! TA.AperFunction,ComponentPad*
%ADD12R,1.860000X1.860000*%
G04 #@! TD*
G04 #@! TA.AperFunction,ComponentPad*
%ADD13C,1.860000*%
G04 #@! TD*
G04 #@! TA.AperFunction,ComponentPad*
%ADD14C,1.524000*%
G04 #@! TD*
G04 #@! TA.AperFunction,ComponentPad*
%ADD15C,1.600000*%
G04 #@! TD*
G04 #@! TA.AperFunction,ComponentPad*
%ADD16O,1.600000X1.600000*%
G04 #@! TD*
G04 #@! TA.AperFunction,ComponentPad*
%ADD17O,2.844800X1.422400*%
G04 #@! TD*
G04 #@! TA.AperFunction,ComponentPad*
%ADD18R,1.524000X1.524000*%
G04 #@! TD*
G04 #@! TA.AperFunction,ViaPad*
%ADD19C,0.800000*%
G04 #@! TD*
G04 #@! TA.AperFunction,Conductor*
%ADD20C,0.500000*%
G04 #@! TD*
G04 #@! TA.AperFunction,Conductor*
%ADD21C,0.300000*%
G04 #@! TD*
G04 APERTURE END LIST*
D10*
X193562000Y-141464000D03*
D11*
X193562000Y-138924000D03*
X193562000Y-136384000D03*
X193562000Y-133844000D03*
X193562000Y-131304000D03*
X193562000Y-128764000D03*
X193562000Y-126224000D03*
X193562000Y-123684000D03*
X180862000Y-141464000D03*
X180862000Y-138924000D03*
X180862000Y-136384000D03*
X180862000Y-133844000D03*
X180862000Y-131304000D03*
X180862000Y-128764000D03*
X180862000Y-126224000D03*
X180862000Y-123684000D03*
X185942000Y-123684000D03*
X183402000Y-123684000D03*
D12*
X138952000Y-97014000D03*
D13*
X138952000Y-94474000D03*
X138952000Y-91934000D03*
D14*
X121172000Y-127494000D03*
X121172000Y-130034000D03*
X121172000Y-132574000D03*
X121172000Y-135114000D03*
X121172000Y-137654000D03*
D15*
X138952000Y-74154000D03*
X138952000Y-71654000D03*
D14*
X202452000Y-86854000D03*
X202452000Y-89394000D03*
X202452000Y-91934000D03*
X202452000Y-94474000D03*
X202452000Y-97014000D03*
X202452000Y-99554000D03*
D15*
X169432000Y-89394000D03*
D16*
X169432000Y-79234000D03*
D14*
X189752000Y-79234000D03*
X192292000Y-79234000D03*
X194832000Y-79234000D03*
X197372000Y-79234000D03*
X199912000Y-79234000D03*
X202452000Y-79234000D03*
D12*
X138952000Y-112254000D03*
D13*
X138952000Y-109714000D03*
X138952000Y-107174000D03*
D12*
X128792000Y-112254000D03*
D13*
X128792000Y-109714000D03*
X128792000Y-107174000D03*
D14*
X201182000Y-117334000D03*
X201182000Y-119874000D03*
X201182000Y-122414000D03*
X201182000Y-124954000D03*
D17*
X147842000Y-98284000D03*
X147842000Y-100824000D03*
X147842000Y-131304000D03*
X173242000Y-98284000D03*
X173242000Y-113524000D03*
X173242000Y-131304000D03*
X173242000Y-133844000D03*
X173242000Y-128764000D03*
X173242000Y-121144000D03*
X173242000Y-144004000D03*
X173242000Y-141464000D03*
X173242000Y-138924000D03*
X147842000Y-136384000D03*
X147842000Y-138924000D03*
X147842000Y-141464000D03*
X147842000Y-128764000D03*
X147842000Y-133844000D03*
X147842000Y-126224000D03*
X173242000Y-136384000D03*
X173242000Y-126224000D03*
X173242000Y-123684000D03*
X173242000Y-118604000D03*
X173242000Y-116064000D03*
X173242000Y-110984000D03*
X173242000Y-103364000D03*
X173242000Y-100824000D03*
X147842000Y-118604000D03*
X147842000Y-121144000D03*
X147842000Y-123684000D03*
X147842000Y-113524000D03*
X147842000Y-116064000D03*
X147842000Y-108444000D03*
X147842000Y-110984000D03*
X147842000Y-103364000D03*
X147842000Y-105904000D03*
X173242000Y-108444000D03*
X173242000Y-105904000D03*
X147842000Y-144004000D03*
D15*
X128792000Y-94474000D03*
D16*
X118632000Y-94474000D03*
D10*
X193562000Y-118604000D03*
D11*
X193562000Y-116064000D03*
X193562000Y-113524000D03*
X193562000Y-110984000D03*
X193562000Y-108444000D03*
X193562000Y-105904000D03*
X193562000Y-103364000D03*
X193562000Y-100824000D03*
X180862000Y-118604000D03*
X180862000Y-116064000D03*
X180862000Y-113524000D03*
X180862000Y-110984000D03*
X180862000Y-108444000D03*
X180862000Y-105904000D03*
X180862000Y-103364000D03*
X180862000Y-100824000D03*
X185942000Y-100824000D03*
X183402000Y-100824000D03*
D14*
X123712000Y-81774000D03*
X123712000Y-79234000D03*
X123712000Y-76694000D03*
X123712000Y-74154000D03*
X123712000Y-71614000D03*
X123712000Y-69074000D03*
D15*
X173482000Y-89394000D03*
D16*
X173482000Y-79234000D03*
D15*
X177532000Y-89394000D03*
D16*
X177532000Y-79234000D03*
D15*
X136412000Y-84274000D03*
X136412000Y-81774000D03*
X128792000Y-99808000D03*
D16*
X118632000Y-99808000D03*
D14*
X131332000Y-76694000D03*
X131332000Y-71614000D03*
X118632000Y-112254000D03*
X118632000Y-107174000D03*
D15*
X181582000Y-89394000D03*
D16*
X181582000Y-79234000D03*
D14*
X158002000Y-85584000D03*
X147842000Y-85584000D03*
X158002000Y-83044000D03*
D18*
X158002000Y-77964000D03*
D14*
X158002000Y-80504000D03*
X158002000Y-88124000D03*
X158002000Y-90664000D03*
X147842000Y-83044000D03*
D18*
X147842000Y-77964000D03*
D14*
X147842000Y-80504000D03*
X147842000Y-88124000D03*
X147842000Y-90664000D03*
X201182000Y-132574000D03*
X201182000Y-135114000D03*
X201182000Y-137654000D03*
X201182000Y-140194000D03*
D19*
X177052500Y-98298000D03*
X154686000Y-84328000D03*
X144032000Y-97014000D03*
X189484000Y-85090000D03*
X164338000Y-86614000D03*
X166370000Y-83312000D03*
X136412000Y-130034000D03*
X136412000Y-124954000D03*
X141492000Y-119874000D03*
X144032000Y-91934000D03*
X141492000Y-117334000D03*
X144032000Y-79234000D03*
D20*
X137160000Y-88646000D02*
X137160000Y-92682000D01*
X192292000Y-119874000D02*
X192292000Y-124954000D01*
X166130000Y-88900000D02*
X173242000Y-96012000D01*
X193562000Y-126224000D02*
X193548000Y-126238000D01*
X192292000Y-124954000D02*
X193562000Y-126224000D01*
X126746000Y-124460000D02*
X126746000Y-111760000D01*
X178816000Y-107950000D02*
X178816000Y-102870000D01*
X173242000Y-96012000D02*
X173242000Y-98284000D01*
X178816000Y-102870000D02*
X180862000Y-100824000D01*
X154672000Y-84314000D02*
X154686000Y-84328000D01*
X183416000Y-126238000D02*
X180862000Y-123684000D01*
X173242000Y-113524000D02*
X178816000Y-107950000D01*
X192002050Y-127783950D02*
X192002050Y-139904050D01*
X150382000Y-85584000D02*
X151652000Y-84314000D01*
X192002050Y-139904050D02*
X193562000Y-141464000D01*
X160514000Y-85584000D02*
X163830000Y-88900000D01*
X193548000Y-126238000D02*
X183416000Y-126238000D01*
X193562000Y-126224000D02*
X192002050Y-127783950D01*
X151652000Y-84314000D02*
X154672000Y-84314000D01*
X193562000Y-118604000D02*
X192292000Y-119874000D01*
X137160000Y-92682000D02*
X138952000Y-94474000D01*
X121172000Y-130034000D02*
X126746000Y-124460000D01*
X163830000Y-88900000D02*
X166130000Y-88900000D01*
X173256000Y-98298000D02*
X173242000Y-98284000D01*
X138952000Y-86854000D02*
X137160000Y-88646000D01*
X147842000Y-85584000D02*
X150382000Y-85584000D01*
X126746000Y-111760000D02*
X128792000Y-109714000D01*
X177052500Y-98298000D02*
X173256000Y-98298000D01*
X138952000Y-84314000D02*
X138952000Y-86854000D01*
X136412000Y-81774000D02*
X138952000Y-84314000D01*
X158002000Y-85584000D02*
X160514000Y-85584000D01*
X195058000Y-89394000D02*
X192292000Y-86628000D01*
X145542000Y-78244000D02*
X145542000Y-90678000D01*
X192292000Y-79234000D02*
X192292000Y-86854000D01*
X128270000Y-81252000D02*
X123712000Y-76694000D01*
X156732000Y-89394000D02*
X156732000Y-84314000D01*
X128270000Y-86332000D02*
X128270000Y-81252000D01*
X138952000Y-97014000D02*
X128270000Y-86332000D01*
X156732000Y-84314000D02*
X158002000Y-83044000D01*
X145542000Y-90678000D02*
X147066000Y-92202000D01*
X147066000Y-92202000D02*
X153924000Y-92202000D01*
X192292000Y-86628000D02*
X192292000Y-79234000D01*
X189752000Y-89394000D02*
X181582000Y-89394000D01*
X192292000Y-86854000D02*
X189752000Y-89394000D01*
X202452000Y-89394000D02*
X195058000Y-89394000D01*
X138952000Y-71654000D02*
X145542000Y-78244000D01*
X153924000Y-92202000D02*
X156732000Y-89394000D01*
X147842000Y-98284000D02*
X145302000Y-98284000D01*
X144032000Y-97014000D02*
X145302000Y-98284000D01*
X144032000Y-97014000D02*
X138952000Y-91934000D01*
X192278000Y-146812000D02*
X145570000Y-146812000D01*
X145570000Y-146812000D02*
X138952000Y-140194000D01*
X131050000Y-107174000D02*
X128792000Y-107174000D01*
X138952000Y-140194000D02*
X138952000Y-112254000D01*
X193562000Y-123684000D02*
X195834000Y-125956000D01*
X195834000Y-143256000D02*
X192278000Y-146812000D01*
X196088000Y-121158000D02*
X193562000Y-123684000D01*
X138952000Y-112254000D02*
X136130000Y-112254000D01*
X196088000Y-103350000D02*
X196088000Y-121158000D01*
X195834000Y-125956000D02*
X195834000Y-143256000D01*
X193562000Y-100824000D02*
X196088000Y-103350000D01*
X136130000Y-112254000D02*
X131050000Y-107174000D01*
D21*
X128792000Y-94474000D02*
X143256000Y-108938000D01*
X143256000Y-111478000D02*
X147842000Y-116064000D01*
X143256000Y-108938000D02*
X143256000Y-111478000D01*
X172466000Y-76200000D02*
X169432000Y-79234000D01*
X196850000Y-76200000D02*
X172466000Y-76200000D01*
X199884000Y-79234000D02*
X196850000Y-76200000D01*
X199912000Y-79234000D02*
X199884000Y-79234000D01*
X189484000Y-85090000D02*
X185674000Y-81280000D01*
X185674000Y-81280000D02*
X175528000Y-81280000D01*
X175528000Y-81280000D02*
X173482000Y-79234000D01*
X179070000Y-77724000D02*
X177560000Y-79234000D01*
X194832000Y-79234000D02*
X194804000Y-79234000D01*
X177560000Y-79234000D02*
X177532000Y-79234000D01*
X194804000Y-79234000D02*
X193294000Y-77724000D01*
X166370000Y-83312000D02*
X166370000Y-84582000D01*
X193294000Y-77724000D02*
X179070000Y-77724000D01*
X166370000Y-84582000D02*
X164338000Y-86614000D01*
X149860000Y-116586000D02*
X149098000Y-117348000D01*
X144780000Y-117348000D02*
X143256000Y-115824000D01*
X149098000Y-117348000D02*
X144780000Y-117348000D01*
X139954000Y-116840000D02*
X139954000Y-118336000D01*
X136412000Y-130034000D02*
X136412000Y-124954000D01*
X139954000Y-118336000D02*
X141492000Y-119874000D01*
X149860000Y-109728000D02*
X149860000Y-116586000D01*
X148576000Y-108444000D02*
X149860000Y-109728000D01*
X143256000Y-115824000D02*
X140970000Y-115824000D01*
X140970000Y-115824000D02*
X139954000Y-116840000D01*
X147842000Y-108444000D02*
X148576000Y-108444000D01*
X178054000Y-121412000D02*
X180862000Y-118604000D01*
X173242000Y-131304000D02*
X178054000Y-126492000D01*
X178054000Y-126492000D02*
X178054000Y-121412000D01*
X175782000Y-133844000D02*
X180862000Y-138924000D01*
X173242000Y-133844000D02*
X175782000Y-133844000D01*
X180862000Y-116064000D02*
X176276000Y-120650000D01*
X176276000Y-120650000D02*
X176276000Y-125730000D01*
X176276000Y-125730000D02*
X173242000Y-128764000D01*
X173242000Y-136384000D02*
X175782000Y-136384000D01*
X175782000Y-136384000D02*
X180862000Y-141464000D01*
X156890000Y-81616000D02*
X167722000Y-81616000D01*
X167722000Y-81616000D02*
X178054000Y-91948000D01*
X178054000Y-91948000D02*
X178054000Y-106172000D01*
X155883472Y-84908528D02*
X155883472Y-82622528D01*
X147842000Y-90664000D02*
X150128000Y-90664000D01*
X178054000Y-106172000D02*
X173242000Y-110984000D01*
X155883472Y-82622528D02*
X156890000Y-81616000D01*
X150128000Y-90664000D02*
X155883472Y-84908528D01*
X144032000Y-79234000D02*
X144032000Y-91934000D01*
X141492000Y-117334000D02*
X142762000Y-118604000D01*
X142762000Y-118604000D02*
X147842000Y-118604000D01*
M02*
